<?xml version="1.0" standalone="no"?><!DOCTYPE svg PUBLIC "-//W3C//DTD SVG 1.1//EN" "http://www.w3.org/Graphics/SVG/1.1/DTD/svg11.dtd"><svg t="1595319747691" class="icon" viewBox="0 0 1024 1024" version="1.1" xmlns="http://www.w3.org/2000/svg" p-id="9242" xmlns:xlink="http://www.w3.org/1999/xlink" width="128" height="128"><defs><style type="text/css"></style></defs><path d="M46.933333 541.866667l-4.266666-12.8v-21.333334l4.266666-25.6C132.266667 298.666667 311.466667 179.2 512 170.666667c200.533333 8.533333 379.733333 128 465.066667 311.466666v38.4c0 4.266667 0 8.533333-4.266667 8.533334 0 4.266667 0 4.266667-4.266667 8.533333-12.8 25.6-25.6 51.2-42.666666 72.533333-64 98.133333-162.133333 174.933333-273.066667 213.333334-38.4 21.333333-89.6 29.866667-140.8 29.866666-200.533333-8.533333-379.733333-128-465.066667-311.466666zM341.333333 512c0 93.866667 76.8 170.666667 170.666667 170.666667s170.666667-76.8 170.666667-170.666667-76.8-170.666667-170.666667-170.666667-170.666667 76.8-170.666667 170.666667z m85.333334 0c0-46.933333 38.4-85.333333 85.333333-85.333333s85.333333 38.4 85.333333 85.333333-38.4 85.333333-85.333333 85.333333-85.333333-38.4-85.333333-85.333333z" p-id="9243"></path></svg>